<?xml version="1.0" standalone="no"?>
<!DOCTYPE svg PUBLIC "-//W3C//DTD SVG 20010904//EN"
 "http://www.w3.org/TR/2001/REC-SVG-20010904/DTD/svg10.dtd">
<svg version="1.0" xmlns="http://www.w3.org/2000/svg"
 width="1200.000000pt" height="956.000000pt" viewBox="0 0 1200.000000 956.000000"
 preserveAspectRatio="xMidYMid meet">

<g transform="translate(0.000000,956.000000) scale(0.100000,-0.100000)"
fill="#000000" stroke="none">
<path d="M5335 8689 c-298 -19 -887 -85 -1152 -129 -255 -42 -848 -207 -1192
-332 -784 -284 -1155 -510 -1642 -997 -388 -389 -601 -719 -693 -1074 -77
-295 -59 -593 56 -925 77 -225 183 -396 386 -626 130 -146 426 -420 507 -470
17 -11 98 -69 180 -130 359 -265 709 -450 1210 -639 296 -111 511 -178 785
-246 474 -117 855 -195 1165 -237 245 -34 1044 -28 1500 11 867 74 1790 299
2559 622 274 115 442 209 731 407 244 167 306 217 484 391 321 314 439 462
546 688 188 394 238 852 129 1181 -106 322 -277 580 -599 902 -289 290 -468
430 -865 677 -353 220 -520 299 -940 446 -113 39 -281 98 -375 131 -224 79
-548 155 -1115 264 -297 56 -432 73 -700 86 -248 12 -775 11 -965 -1z m1175
-153 c107 -9 269 -27 360 -42 171 -26 541 -106 690 -148 381 -107 679 -204
845 -276 138 -60 482 -231 599 -298 45 -25 108 -59 141 -77 64 -33 418 -288
570 -411 256 -206 509 -472 654 -688 176 -261 248 -494 258 -828 7 -216 -7
-337 -52 -474 -137 -415 -464 -794 -1034 -1202 -169 -121 -311 -207 -491 -297
-177 -89 -422 -202 -462 -213 -18 -5 -78 -28 -133 -50 -120 -48 -393 -138
-565 -186 -137 -39 -514 -122 -728 -162 -75 -14 -209 -38 -297 -55 -340 -63
-556 -86 -960 -100 -170 -6 -346 -9 -390 -6 -529 37 -682 53 -918 92 -374 63
-710 150 -1152 297 -640 213 -1204 508 -1641 860 -237 190 -469 423 -540 541
-17 29 -56 93 -86 142 -104 170 -190 365 -233 530 -21 83 -25 119 -25 249 0
273 25 393 129 611 204 429 443 726 835 1041 253 203 451 322 861 518 284 135
398 180 700 279 396 130 559 172 960 247 397 75 660 105 1085 124 181 8 838
-3 1020 -18z"/>
<path d="M4141 7954 c-122 -18 -233 -49 -295 -82 -73 -40 -190 -154 -220 -214
-20 -39 -26 -67 -26 -114 0 -105 10 -112 87 -64 26 17 54 30 63 30 9 0 34 13
56 28 105 76 299 98 799 89 340 -6 471 -16 770 -62 627 -95 1081 -146 1555
-175 350 -21 853 -6 1040 31 242 48 362 86 376 118 3 9 9 72 12 140 7 172 12
169 -188 106 -226 -72 -359 -85 -850 -85 -413 1 -555 8 -930 50 -335 37 -475
56 -830 114 -325 53 -456 71 -685 91 -211 18 -604 18 -734 -1z"/>
<path d="M4210 7554 c-68 -13 -172 -37 -235 -55 -105 -31 -328 -127 -347 -151
-10 -11 -18 -35 -18 -53 0 -44 55 -208 73 -219 11 -7 43 3 114 36 187 88 412
134 713 145 178 6 268 0 660 -47 135 -16 346 -41 470 -55 124 -15 326 -42 450
-60 297 -45 334 -49 751 -85 l357 -31 363 15 c384 16 489 28 611 72 103 37
147 64 156 94 11 38 6 250 -5 261 -8 8 -32 3 -79 -14 -38 -13 -103 -32 -144
-41 -121 -28 -415 -66 -550 -73 -138 -6 -576 9 -910 33 -334 23 -1135 113
-1380 154 -396 67 -454 73 -745 76 -154 1 -291 0 -305 -2z"/>
<path d="M4265 7140 c-137 -10 -293 -50 -414 -106 -122 -56 -131 -73 -83 -153
15 -25 43 -77 62 -116 21 -43 42 -71 53 -73 11 -2 36 10 56 26 67 54 256 99
456 109 135 6 188 2 885 -67 272 -27 611 -58 753 -70 142 -11 335 -27 430 -35
378 -32 948 -57 1142 -51 212 6 307 19 477 65 153 41 206 64 213 93 10 48 24
224 18 246 -7 30 -36 29 -142 -7 -225 -76 -433 -95 -921 -81 -515 15 -867 40
-1205 85 -104 14 -282 36 -395 50 -113 13 -306 38 -430 55 -199 27 -261 31
-530 34 -168 3 -359 1 -425 -4z"/>
<path d="M3554 7043 c-4 -43 -2 -177 3 -298 8 -175 14 -227 27 -254 81 -156
772 -1012 1216 -1506 218 -242 700 -698 833 -788 l42 -28 17 21 c15 19 18 43
18 161 l0 138 -147 143 c-215 207 -363 359 -466 478 -50 58 -152 173 -227 255
-188 208 -253 287 -522 631 -461 589 -574 749 -690 979 -40 80 -78 145 -85
145 -7 0 -14 -29 -19 -77z"/>
<path d="M5957 6639 c-20 -31 -63 -134 -93 -223 -65 -190 -85 -479 -104 -1501
-6 -313 -15 -642 -20 -730 -13 -240 -48 -322 -168 -399 -72 -46 -99 -72 -87
-84 4 -4 100 -6 213 -5 l207 2 32 38 c39 46 87 133 102 188 36 126 42 245 51
1041 9 754 18 1008 40 1084 6 19 10 64 11 100 0 117 66 320 129 404 22 29 40
57 40 63 0 15 -102 33 -226 40 -110 6 -112 5 -127 -18z"/>
<path d="M6393 6557 c-58 -65 -109 -163 -127 -249 -8 -35 -21 -88 -29 -118
-31 -105 -42 -383 -58 -1375 -12 -824 -22 -907 -116 -1033 -39 -53 -30 -66 57
-75 41 -5 109 -6 150 -2 70 7 78 10 110 44 41 43 83 125 107 208 15 52 17 160
23 1033 8 1059 5 1002 66 1245 36 141 78 245 120 294 24 27 33 46 27 52 -14
14 -118 29 -204 29 l-77 0 -49 -53z"/>
<path d="M6858 6583 c-81 -13 -160 -173 -218 -438 -33 -155 -39 -304 -40 -965
-1 -631 -10 -995 -30 -1134 -14 -99 -39 -164 -90 -241 -56 -84 -54 -95 18 -95
228 0 338 108 388 378 14 75 17 204 19 927 1 527 6 877 13 940 19 173 92 419
157 527 19 33 35 63 35 67 0 17 -51 29 -136 34 -49 3 -101 3 -116 0z"/>
<path d="M3590 6081 l0 -198 204 -256 c344 -432 714 -847 1209 -1353 278 -285
235 -268 -67 27 -490 478 -826 841 -1102 1191 -110 140 -182 218 -201 218 -21
0 -26 -47 -20 -189 7 -165 14 -190 77 -283 106 -159 477 -572 895 -996 389
-396 478 -461 695 -506 79 -16 144 -9 203 21 26 13 28 18 23 49 -6 32 -5 34
20 34 57 0 125 67 153 152 17 50 6 68 -104 164 -428 375 -798 742 -1126 1114
-267 303 -337 386 -489 585 -245 321 -332 425 -356 425 -11 0 -14 -37 -14
-199z"/>
<path d="M6124 1807 c-2 -7 -3 -78 -2 -157 l3 -145 172 -5 c94 -3 175 -8 179
-12 4 -4 1 -157 -7 -340 -17 -402 -17 -414 -1 -430 9 -9 61 -14 177 -16 150
-3 164 -2 173 15 5 10 12 119 16 243 7 236 24 519 32 532 3 4 60 8 128 8 168
0 162 -6 158 161 -1 73 -3 134 -5 135 -7 6 -594 24 -790 24 -177 0 -229 -3
-233 -13z"/>
<path d="M5333 1801 c-29 -4 -59 -13 -67 -21 -8 -8 -51 -98 -94 -200 -44 -102
-112 -255 -152 -340 -39 -85 -96 -212 -125 -281 -30 -69 -68 -154 -84 -189
-21 -44 -27 -68 -20 -75 6 -6 83 -11 187 -13 l178 -4 36 81 37 81 58 0 c106 0
383 -21 408 -30 15 -6 34 -28 47 -55 12 -25 29 -47 37 -49 31 -9 350 -28 361
-21 17 11 11 59 -16 126 -14 35 -87 190 -162 344 -74 154 -168 349 -207 433
-40 84 -79 161 -86 172 -9 13 -33 23 -69 29 -82 14 -208 20 -267 12z m187
-543 c23 -57 44 -109 47 -115 4 -10 -16 -13 -80 -13 -94 0 -117 5 -117 26 0
22 87 204 98 204 5 0 28 -46 52 -102z"/>
<path d="M7286 1739 c-35 -439 -53 -985 -34 -1004 15 -16 182 -24 520 -27 282
-2 360 0 370 10 9 9 13 47 13 132 0 65 -2 120 -5 123 -3 3 -119 8 -257 12
-284 9 -259 -1 -246 90 l6 48 223 -7 c123 -3 229 -9 237 -12 8 -3 19 6 27 23
15 33 25 222 12 241 -6 8 -74 16 -228 24 -120 6 -229 15 -241 19 -20 7 -23 16
-23 59 l0 51 108 -7 c59 -4 171 -8 249 -8 186 -1 179 -8 175 161 -2 70 -4 128
-5 129 -1 1 -203 5 -449 9 l-446 7 -6 -73z"/>
<path d="M8315 1799 c-9 -14 24 -61 161 -229 134 -164 216 -273 238 -316 20
-38 16 -43 -166 -240 -81 -88 -170 -188 -198 -223 -52 -64 -52 -65 -29 -74 13
-5 119 -11 235 -14 l210 -6 59 84 c72 104 173 227 196 239 17 10 53 -33 183
-221 l60 -86 149 -7 c244 -10 303 -8 318 10 17 21 10 32 -113 173 -160 185
-323 402 -312 416 5 7 74 95 154 195 182 228 220 280 220 297 0 10 -39 13
-202 13 -112 0 -212 -3 -223 -6 -11 -3 -69 -71 -129 -150 -70 -92 -115 -144
-125 -142 -8 2 -69 69 -136 150 l-120 147 -212 1 c-138 0 -214 -4 -218 -11z"/>
<path d="M2613 1781 c-23 -10 -31 -31 -113 -266 -78 -225 -145 -385 -161 -385
-7 0 -111 189 -261 475 l-84 160 -211 0 c-116 0 -215 -3 -219 -8 -11 -11 14
-58 157 -295 151 -248 382 -649 428 -739 22 -45 38 -64 56 -69 35 -9 272 14
303 29 30 14 124 213 301 637 57 135 121 285 143 334 21 49 37 94 34 101 -2 7
-24 15 -48 18 -86 12 -303 17 -325 8z"/>
<path d="M3055 1725 c-13 -97 -1 -1013 12 -1026 18 -18 310 -36 325 -21 9 9
13 162 16 557 l5 545 -176 0 -176 0 -6 -55z"/>
<path d="M3621 1771 c-11 -7 -16 -84 -27 -367 -7 -198 -14 -440 -16 -539 l-3
-180 80 -3 c44 -2 126 -1 182 3 l101 7 6 146 c14 337 19 402 27 402 11 0 298
-359 373 -467 l58 -83 162 0 163 0 6 58 c4 31 10 276 14 545 l6 487 -192 0
-193 0 2 -212 c3 -255 2 -268 -8 -268 -5 0 -80 91 -168 202 -218 276 -202 259
-260 269 -66 11 -296 11 -313 0z"/>
</g>
</svg>
